<svg xmlns="http://www.w3.org/2000/svg" xmlns:xlink="http://www.w3.org/1999/xlink" fill="none" version="1.1"
  width="91.01318359375" height="25.007080078125" viewBox="0 0 91.01318359375 25.007080078125">
  <defs>
    <linearGradient x1="-1.9989999532699585" y1="1.034000039100647" x2="1.9620000123977661" y2="0.1120000034570694"
      id="master_svg0_96_4057">
      <stop offset="0%" stop-color="#30BAC6" stop-opacity="1" />
      <stop offset="100%" stop-color="#B6509E" stop-opacity="1" />
    </linearGradient>
    <linearGradient x1="-4.047999858856201" y1="1.315000057220459" x2="1.180999994277954" y2="0.3790000081062317"
      id="master_svg1_96_4060">
      <stop offset="0%" stop-color="#30BAC6" stop-opacity="1" />
      <stop offset="100%" stop-color="#B6509E" stop-opacity="1" />
    </linearGradient>
    <linearGradient x1="-1.1230000257492065" y1="0.9259999990463257" x2="2.8340001106262207" y2="0.004000000189989805"
      id="master_svg2_96_4063">
      <stop offset="0%" stop-color="#30BAC6" stop-opacity="1" />
      <stop offset="100%" stop-color="#B6509E" stop-opacity="1" />
    </linearGradient>
    <linearGradient x1="-0.050999999046325684" y1="0.6769999861717224" x2="3.9059998989105225" y2="-0.2460000067949295"
      id="master_svg3_96_4066">
      <stop offset="0%" stop-color="#30BAC6" stop-opacity="1" />
      <stop offset="100%" stop-color="#B6509E" stop-opacity="1" />
    </linearGradient>
  </defs>
  <g>
    <g>
      <g>
        <g>
          <path
            d="M56.1316426171875,23.3785L47.3159346171875,2.23104C47.2465539171875,2.03832,47.2098288671875,1.83559,47.2072249371875,1.63104C47.1900197171875,1.19713,47.3457156171875,0.773878,47.6408076171875,0.452291C47.9466446171875,0.142447,48.3729326171875,-0.0216119,48.8100926171875,0.00229068C49.1375626171875,0.00659494,49.4556126171875,0.111428,49.7202326171875,0.302291C49.9990626171875,0.505539,50.217382617187496,0.779293,50.3522726171875,1.09479L58.7356326171875,21.7885L67.1140326171875,1.09604C67.2488326171875,0.780512,67.4671326171875,0.506747,67.7460326171875,0.303539C68.0106326171875,0.112686,68.3287326171875,0.00785318,68.6561326171875,0.0035389C69.0933326171875,-0.0203566,69.5196326171875,0.143702,69.8254326171875,0.453539C70.12053261718751,0.775126,70.2762326171875,1.19838,70.2590326171875,1.63229C70.2564326171875,1.83684,70.2197326171875,2.03957,70.1503326171875,2.23229L61.3308326171875,23.3785C61.0203326171875,24.3309,60.1329326171875,24.9835,59.1212326171875,25.0035L58.3412326171875,25.0035C57.329532617187496,24.9835,56.4421226171875,24.3309,56.1316426171875,23.3785Z"
            fill="url(#master_svg0_96_4057)" fill-opacity="1" />
        </g>
        <g>
          <path
            d="M74.0018946484375,24.361019677734376C73.6995296484375,24.060219677734374,73.5350774484375,23.650019677734374,73.5468432994375,23.226019677734374L73.5468432994375,1.799769677734375C73.5390507984375,1.370199677734375,73.7025006484375,0.954856677734375,74.0018946484375,0.6435216777343751C74.2983566484375,0.331117677734375,74.7166446484375,0.160285677734375,75.1496646484375,0.174771576734375L89.4742646484375,0.174771576734375C89.8840646484375,0.163339377734375,90.2789646484375,0.327363677734375,90.5575646484375,0.624771677734375C90.8546646484375,0.902803677734375,91.0198646484375,1.291589677734375,91.0125646484375,1.696019677734375C91.0239646484375,2.095079677734375,90.8575646484375,2.478929677734375,90.5575646484375,2.746019677734375C90.2686646484375,3.026059677734375,89.8786646484375,3.180409677734375,89.4742646484375,3.174769677734375L76.7967746484375,3.174769677734375L76.7967746484375,10.972319677734376L88.1912646484375,10.972319677734376C88.6010646484375,10.961019677734376,88.9958646484375,11.125019677734375,89.2745646484375,11.422319677734375C89.5680646484375,11.702719677734375,89.7324646484375,12.089919677734375,89.7295646484375,12.493519677734374C89.7409646484375,12.892619677734375,89.5745646484375,13.276419677734374,89.2745646484375,13.543519677734375C88.9856646484375,13.823519677734375,88.5956646484375,13.977919677734375,88.1912646484375,13.972319677734376L76.7967746484375,13.972319677734376L76.7967746484375,21.813519677734377L89.4742646484375,21.813519677734377C89.8840646484375,21.802119677734375,90.2789646484375,21.966119677734376,90.5575646484375,22.263519677734376C90.8546646484375,22.541519677734374,91.0198646484375,22.930319677734374,91.0125646484375,23.334819677734377C91.0239646484375,23.733819677734374,90.8575646484375,24.117719677734375,90.5575646484375,24.384819677734374C90.2686646484375,24.664819677734375,89.8786646484375,24.819119677734374,89.4742646484375,24.813519677734377L75.1496646484375,24.813519677734377C74.7171846484375,24.844419677734376,74.2941906484375,24.677719677734373,74.0018946484375,24.361019677734376Z"
            fill="url(#master_svg1_96_4060)" fill-opacity="1" />
        </g>
        <g>
          <path
            d="M49.3081265625,22.776033005714417L40.4924265625,1.6285330057144165C40.181926562499996,0.6761640057144165,39.294526562499996,0.023542605714416503,38.2827265625,0.003533005714416504L37.5028265625,0.003533005714416504C36.4911265625,0.023542605714416503,35.6037165625,0.6761610057144165,35.2932165625,1.6285330057144165L31.459256562500002,10.839733005714416L28.5518665625,10.839733005714416C27.6824965625,10.849333005714417,26.9820625625,11.547533005714417,26.9793425625,12.407233005714417L26.9793425625,12.428533005714417C26.9841835625,13.290133005714416,27.6893565625,13.987533005714416,28.560706562500002,13.992333005714416L30.1205865625,13.992333005714416L26.4547475625,22.776033005714417C26.3853574625,22.968733005714416,26.3486228125,23.171433005714416,26.3460381725,23.376033005714415C26.3286979625,23.809933005714417,26.4844035625,24.233233005714418,26.7796215625,24.554833005714418C27.0854385625,24.864633005714417,27.5117265625,25.028733005714418,27.9488965625,25.004833005714417C28.2763965625,25.000433005714417,28.5944365625,24.895633005714416,28.8590465625,24.704833005714416C29.1379065625,24.501533005714418,29.3562365625,24.227833005714416,29.4910865625,23.912333005714416L33.5197065625,13.993533005714417L36.2918265625,13.993533005714417C37.1632265625,13.988733005714417,37.8684265625,13.291433005714417,37.8732265625,12.429833005714416L37.8732265625,12.386033005714417C37.8684265625,11.524433005714416,37.1632265625,10.827033005714416,36.2918265625,10.822333005714416L34.7976765625,10.822333005714416L37.8946265625,3.2172830057144166L46.2780265625,23.911033005714415C46.412926562500004,24.226533005714415,46.6313265625,24.500233005714417,46.9101265625,24.703533005714416C47.1747265625,24.894433005714415,47.492726562499996,24.999233005714416,47.8202265625,25.003533005714417C48.2574265625,25.027433005714418,48.6837265625,24.863333005714416,48.989526562500004,24.553533005714417C49.2847265625,24.232033005714417,49.4404265625,23.808733005714416,49.4231265625,23.374833005714418C49.4290265625,23.169333005714417,49.389826562500005,22.965033005714417,49.3081265625,22.776033005714417Z"
            fill="url(#master_svg2_96_4063)" fill-opacity="1" />
        </g>
        <g>
          <path
            d="M22.9672,22.776033005714417L14.1514,1.6285330057144165C13.841,0.6761620057144165,12.9535,0.023538205714416505,11.9418,0.003533005714416504L11.1619,0.003533005714416504C10.1502,0.023538605714416502,9.26276,0.6761620057144165,8.95227,1.6285330057144165L5.11831,10.843533005714416L2.21092,10.843533005714416C1.34303,10.853033005714417,0.64318,11.549033005714417,0.638404,12.407333005714417L0.638404,12.428533005714417C0.64324,13.290133005714416,1.34842,13.987533005714416,2.21977,13.992333005714416L3.77586,13.992333005714416L0.110018,22.776033005714417C0.0406394,22.968733005714416,0.00390861,23.171433005714416,0.00130709,23.376033005714415C-0.0160307,23.809933005714417,0.139674,24.233233005714418,0.434887,24.554833005714418C0.740704,24.864633005714417,1.16699,25.028733005714418,1.60416,25.004833005714417C1.93165,25.000433005714417,2.2497,24.895633005714416,2.5143,24.704833005714416C2.79316,24.501533005714418,3.0115,24.227833005714416,3.14634,23.912333005714416L7.17497,13.993533005714417L9.96986,13.993533005714417C10.8422,13.989433005714417,11.5483,13.291133005714416,11.5525,12.428533005714417L11.5525,12.386033005714417C11.5477,11.524433005714416,10.8425,10.827033005714416,9.97112,10.822333005714416L8.47571,10.822333005714416L11.5512,3.2172830057144166L19.9346,23.911033005714415C20.0695,24.226533005714415,20.2878,24.500333005714417,20.5667,24.703533005714416C20.8313,24.894433005714415,21.1493,24.999233005714416,21.4768,25.003533005714417C21.914,25.027433005714418,22.3403,24.863333005714416,22.6461,24.553533005714417C22.9413,24.232033005714417,23.097,23.808733005714416,23.0797,23.374833005714418C23.0863,23.169533005714417,23.048,22.965233005714417,22.9672,22.776033005714417Z"
            fill="url(#master_svg3_96_4066)" fill-opacity="1" />
        </g>
      </g>
    </g>
  </g>
</svg>