<svg xmlns="http://www.w3.org/2000/svg" xmlns:xlink="http://www.w3.org/1999/xlink" fill="none" version="1.1" width="16"
  height="16" viewBox="0 0 16 16">
  <g>
    <g>
      <path
        d="M13.1988,5.70029L6.50029,12.3988L2.79881,8.6997C2.4,8.30089,2.4,7.6991,2.79881,7.30029C3.19999,6.8991,3.79941,6.8991,4.2006,7.30029L6.50029,9.59998L11.7994,4.3009C12.2006,3.89971,12.8,3.89971,13.1988,4.3009C13.6,4.69971,13.6,5.2991,13.1988,5.70029ZM8,0C3.6012,0,0,3.6012,0,8C0,12.3988,3.6012,16,8,16C12.3988,16,16,12.3988,16,8C16,3.6012,12.3988,0,8,0Z"
        fill="#22C134" fill-opacity="1" />
    </g>
  </g>
</svg>