<svg xmlns="http://www.w3.org/2000/svg" xmlns:xlink="http://www.w3.org/1999/xlink" fill="none" version="1.1" width="64"
  height="63" viewBox="0 0 64 63">
  <defs>
    <clipPath id="master_svg0_13_6150">
      <rect x="0" y="0" width="64" height="63" rx="0" />
    </clipPath>
  </defs>
  <g clip-path="url(#master_svg0_13_6150)">
    <g>
      <g>
        <ellipse cx="32" cy="31.5" rx="32" ry="31.5" fill="#26A17B" fill-opacity="1" />
      </g>
      <g>
        <path
          d="M35.84409765625,34.22271572265625L35.84409765625,34.218815722656245C35.62409765625,34.234515722656255,34.49009765625,34.30151572265625,31.96009765625,34.30151572265625C29.94009765625,34.30151572265625,28.51809765625,34.24241572265625,28.01809765625,34.218815722656245L28.01809765625,34.22471572265625C20.24209765625,33.88801572265625,14.438097656250001,32.55521572265625,14.438097656250001,30.96051572265625C14.438097656250001,29.36781572265625,20.24209765625,28.03491572265625,28.01809765625,27.69241572265625L28.01809765625,32.89781572265625C28.526097656250002,32.93321572265625,29.98209765625,33.01781572265625,31.99409765625,33.01781572265625C34.40809765625,33.01781572265625,35.61809765625,32.919415722656254,35.84409765625,32.89971572265625L35.84409765625,27.69631572265625C43.604097656250005,28.03691572265625,49.39409765625,29.36981572265625,49.39409765625,30.96051572265625C49.39409765625,32.55521572265625,43.604097656250005,33.88411572265625,35.84409765625,34.22271572265625ZM35.84409765625,27.15491572265625L35.84409765625,22.49686572265625L46.67209765625,22.49686572265625L46.67209765625,15.39361572265625L17.19009765625,15.39361572265625L17.19009765625,22.49686572265625L28.01809765625,22.49686572265625L28.01809765625,27.15291572265625C19.218097656250002,27.55061572265625,12.60009765625,29.26741572265625,12.60009765625,31.32281572265625C12.60009765625,33.37811572265625,19.218097656250002,35.09291572265625,28.01809765625,35.492615722656254L28.01809765625,50.41961572265625L35.84409765625,50.41961572265625L35.84409765625,35.48861572265625C44.63009765625,35.09091572265625,51.23209765625,33.376215722656255,51.23209765625,31.32281572265625C51.23209765625,29.269415722656248,44.63009765625,27.55461572265625,35.84409765625,27.15491572265625Z"
          fill-rule="evenodd" fill="#FFFFFF" fill-opacity="1" />
      </g>
    </g>
  </g>
</svg>